<svg width="44" height="44" viewBox="0 0 44 44" fill="none" xmlns="http://www.w3.org/2000/svg">
<g clip-path="url(#clip0_415_56)">
<path d="M44.0014 21.2632V22.7386L43.9587 22.9751C43.8872 23.6199 43.8364 24.2648 43.7374 24.8946C43.3993 26.938 42.6671 28.8961 41.5814 30.6599C39.9847 33.3106 37.6638 35.4498 34.892 36.8254C33.2787 37.6358 31.5359 38.157 29.7426 38.3654C29.3411 38.4149 28.941 38.4589 28.5464 38.5016H13.0845C13.0061 38.4878 12.9346 38.4658 12.8549 38.4589C11.3045 38.3652 9.78345 37.994 8.36412 37.3631C5.24837 35.9743 2.92875 33.7317 1.41075 30.6462C0.74346 29.2793 0.310278 27.8101 0.12925 26.2998L0 25.1971V23.7643C0.01375 23.6859 0.03575 23.6062 0.042625 23.5278C0.121 22.1597 0.400125 20.8204 0.88825 19.5389C2.19862 16.0946 4.49075 13.5371 7.74125 11.8761C9.40903 11.031 11.2374 10.5501 13.1051 10.4653C14.0291 10.4227 14.9531 10.4653 15.862 10.5946C15.9099 10.6001 15.9584 10.5952 16.0042 10.5803C16.05 10.5653 16.092 10.5407 16.1274 10.5079C17.4267 9.15167 18.9506 8.03013 20.6319 7.1928C22.2541 6.37687 24.0066 5.85103 25.8101 5.63905C26.2405 5.58955 26.6695 5.54555 27.0916 5.50293H28.4089C28.4955 5.51668 28.5876 5.5318 28.6674 5.53868C29.326 5.61705 29.9777 5.66793 30.6295 5.78205C32.6274 6.1258 34.5469 6.8628 36.2587 7.9518C38.8951 9.59578 41.007 11.9586 42.3459 14.7622C43.1475 16.4094 43.6631 18.1859 43.8708 20.0051L44 21.2659L44.0014 21.2632ZM19.3944 11.7303C19.4233 11.7661 19.4301 11.7881 19.4439 11.7881C20.3459 12.2459 21.2121 12.7767 22.0289 13.3776C22.0784 13.4133 22.2076 13.3996 22.2722 13.3638C24.5066 11.9173 26.9417 11.4237 29.5487 11.8884C32.1049 12.3546 34.1894 13.6498 35.7789 15.7274C37.576 18.0759 38.2635 20.7338 37.7699 23.6832C37.433 25.6604 36.652 27.4424 35.3279 28.9261C32.9079 31.6403 29.8774 32.7651 26.312 32.2921C24.1202 31.9978 22.2228 31.0312 20.6539 29.4197C18.6409 27.3572 16.6141 25.3016 14.5956 23.2391C14.3234 22.9599 14.0305 22.7454 13.6427 22.6946C13.3181 22.6496 12.9876 22.7112 12.701 22.8702C12.4144 23.0291 12.1871 23.2768 12.0533 23.5759C11.7948 24.1204 11.8319 24.7433 12.397 25.3084C14.6451 27.5566 16.8726 29.8267 19.1221 32.0762C19.5085 32.4626 19.9238 32.8214 20.361 33.1432C22.0014 34.3532 23.8562 35.0269 25.861 35.2992C27.4367 35.5068 28.9974 35.4642 30.5442 35.1053C33.5019 34.4316 35.9507 32.8998 37.8771 30.5293C39.4539 28.6045 40.4544 26.2731 40.7632 23.8042C40.9619 22.3634 40.9233 20.8999 40.6491 19.4716C40.1981 17.1437 39.2315 15.0606 37.6777 13.2841C34.7132 9.89606 30.9815 8.38493 26.5416 8.7218C24.8445 8.86517 23.1957 9.36012 21.7003 10.1752C20.8788 10.6065 20.1078 11.1276 19.4013 11.7289L19.3944 11.7303ZM18.3136 35.3638C18.249 35.3061 18.1913 35.2497 18.128 35.1919C17.2109 34.3106 16.2869 33.4306 15.378 32.5354C15.3042 32.4536 15.2134 32.3888 15.112 32.3456C15.0106 32.3024 14.901 32.2818 14.7909 32.2852C13.8669 32.3072 12.9497 32.3141 12.0409 32.1064C7.5295 31.0683 4.90737 26.0771 6.56975 21.6867C7.88012 18.2272 11.5115 16.1221 15.092 16.7669C16.6966 17.0612 18.1074 17.7556 19.2665 18.9656C20.6773 20.4478 22.1237 21.8806 23.5565 23.3491C23.8782 23.6791 24.2509 23.8358 24.7019 23.7712C25.2753 23.6846 25.74 23.4054 25.9476 22.8252C26.1553 22.2518 26.0549 21.7156 25.6328 21.2783C24.1354 19.7383 22.6751 18.1557 21.1214 16.6803C18.0991 13.8162 14.5406 12.9637 10.6013 14.1806C5.30888 15.8209 2.20825 21.3773 3.41825 26.8636C4.521 31.8699 8.82475 35.3721 13.8531 35.3789H18.0716C18.1363 35.3789 18.2078 35.3721 18.315 35.3652L18.3136 35.3638Z" fill="black"/>
</g>
<defs>
<clipPath id="clip0_415_56">
<rect width="44" height="44" fill="white"/>
</clipPath>
</defs>
</svg>
