<svg width="44" height="44" viewBox="0 0 44 44" fill="none" xmlns="http://www.w3.org/2000/svg">
<g clip-path="url(#clip0_415_255)">
<path d="M31.0448 15.6198C31.2524 15.7257 31.4449 15.8687 31.6016 16.0419L35.9068 14.1224L31.8904 10.1404L30.987 15.562L31.0448 15.6198ZM22.1073 12.0022C22.3218 12.317 22.4496 12.6745 22.4936 13.054L28.9025 15.7697C29.095 15.6198 29.3164 15.5112 29.5529 15.4465L30.6048 8.93591L26.7011 4.83979L22.1045 11.9004L22.1073 12.0022ZM43.9835 22.0644L37.1154 15.1963L32.439 17.1089L43.9271 21.9929C43.9271 21.9929 44.0275 22.0644 43.9835 22.0644ZM42.8381 23.1823L31.8106 18.4688C31.6571 18.672 31.4646 18.8425 31.2443 18.9702C31.024 19.098 30.7804 19.1804 30.5277 19.2127L29.3466 26.4685C29.6973 26.826 29.898 27.3059 29.898 27.8064L36.5571 29.2034L42.6663 23.1369V23.0228L42.8381 23.1823ZM28.2288 16.9577L22.2434 14.407C22.0375 14.7238 21.7532 14.982 21.418 15.1564C21.0829 15.3309 20.7083 15.4156 20.3307 15.4025H19.9664L15.004 23.0585L28.2521 17.322V17.3372C28.2452 17.2346 28.2452 17.1317 28.2521 17.0292C28.259 17.0072 28.2508 16.9797 28.2288 16.9577ZM35.5053 30.3584L29.6478 29.147C29.4302 29.4321 29.1373 29.6507 28.8021 29.7782L27.4051 38.4365L35.541 30.3722C35.541 30.3722 35.5259 30.4162 35.5039 30.4162L35.5053 30.3584ZM27.3116 29.7617C27.0341 29.6481 26.7872 29.471 26.5906 29.2446C26.3941 29.0182 26.2534 28.7488 26.18 28.4582L15.2735 26.2183L15.1154 26.4699L25.014 40.785L25.608 40.1979L27.291 29.7988C27.291 29.7988 27.3474 29.8414 27.3116 29.8208V29.7617ZM15.5031 24.8997L26.2818 27.1203C26.4363 26.8494 26.6548 26.6204 26.9182 26.4533C27.1816 26.2863 27.4819 26.1862 27.7929 26.1619L28.9603 19.0284L28.7086 18.8139L15.3106 24.5573C15.3821 24.6632 15.4467 24.7787 15.5031 24.8997ZM10.9835 26.6968L10.7539 26.4699L6.10637 28.3798L8.36137 30.6224L10.9258 26.6404L10.9835 26.6968ZM14.0497 27.4283C13.7257 27.5743 13.3752 27.6524 13.0199 27.6579C12.7325 27.6579 12.4602 27.6139 12.188 27.5218L9.35963 31.6399L21.7635 43.9283L23.947 41.7572L14.0497 27.4283ZM12.309 22.5869C12.4946 22.5663 12.6885 22.5663 12.881 22.5869C13.09 22.5594 13.3045 22.5594 13.5121 22.5869L18.524 14.7948C18.1336 14.3885 17.9153 13.8471 17.9149 13.2837C17.8943 13.1175 17.8943 12.9494 17.9149 12.7832L11.8277 9.96854L6.92863 14.737L12.309 22.5869ZM12.8617 9.01566L18.7976 11.5443C19.2263 11.1863 19.7726 11.0001 20.3307 11.0218C20.5741 11.0287 20.8161 11.0644 21.0526 11.1359L25.6878 3.90341L21.8556 0.0712891L12.8617 8.90016C12.8617 8.90016 12.8466 8.99366 12.8617 9.01566ZM10.6411 23.9839C10.7621 23.7625 10.912 23.5549 11.0852 23.3679L6.00737 15.7903L0 21.6272L10.6411 23.9839ZM10.1612 25.2654L0.972125 23.3459L5.0105 27.4434L10.1035 25.2805L10.1612 25.2654Z" fill="black"/>
</g>
<defs>
<clipPath id="clip0_415_255">
<rect width="44" height="44" fill="white"/>
</clipPath>
</defs>
</svg>
