<svg width="42" height="42" viewBox="0 0 42 42" fill="none" xmlns="http://www.w3.org/2000/svg">
<g clip-path="url(#clip0_415_251)">
<path d="M38.1627 31.9988L23.7182 1.3231C23.5387 0.945295 23.2602 0.623146 22.9123 0.390833C22.5645 0.15852 22.1602 0.0247078 21.7425 0.00359559C21.3241 -0.0242437 20.9062 0.0631669 20.5341 0.256318C20.162 0.44947 19.85 0.740966 19.632 1.0991L3.96598 26.4741C3.72821 26.8573 3.60456 27.3003 3.60952 27.7513C3.61448 28.2023 3.74784 28.6425 3.99398 29.0203L11.652 40.8818C11.9418 41.3265 12.3676 41.6658 12.8658 41.849C13.364 42.0322 13.9081 42.0496 14.417 41.8986L36.6472 35.3238C37.328 35.1226 37.8845 34.6413 38.175 34.0026C38.4655 33.3638 38.462 32.6323 38.1627 31.9988ZM34.9287 33.3148L16.0655 38.8921C15.9348 38.9319 15.796 38.9371 15.6627 38.9073C15.5293 38.8775 15.406 38.8137 15.3047 38.722C15.2034 38.6304 15.1275 38.5141 15.0845 38.3844C15.0415 38.2547 15.0328 38.1161 15.0592 37.9821L21.7967 5.7156C21.9227 5.11185 22.7575 5.0156 23.02 5.5756L35.4957 32.0671C35.5509 32.1852 35.5797 32.3139 35.5803 32.4443C35.5809 32.5746 35.5532 32.7035 35.4992 32.8222C35.4451 32.9408 35.3659 33.0463 35.2672 33.1313C35.1684 33.2164 35.0541 33.279 34.9287 33.3148Z" fill="black"/>
</g>
<defs>
<clipPath id="clip0_415_251">
<rect width="42" height="42" fill="white"/>
</clipPath>
</defs>
</svg>
