<svg width="335" height="159" viewBox="0 0 335 159" fill="none" xmlns="http://www.w3.org/2000/svg">
<path d="M2.48767 81.5581C11.5979 82.3863 20.2692 87.6921 29.3808 89.0285C46.2247 91.4989 63.4562 90.6591 80.3925 92.7636C109.24 96.3482 137.894 100.439 166.942 101.941C189.406 103.103 211.916 104.282 233.748 98.0996C249.166 93.7334 264.452 82.5873 271.953 68.1116C277.98 56.481 279.103 42.4554 279.103 29.586C279.103 7.65595 253.421 3.98064 236.309 2.05252C220.158 0.23273 219.24 23.9703 225.744 33.9615C239.807 55.5666 260.463 69.9437 281.238 84.2261C294.217 93.1494 311.026 104.827 316.562 120.511C320.771 132.438 317.519 144.957 313.68 156.475" stroke="#C9D546" stroke-width="3" stroke-linecap="round"/>
<path d="M313.349 156.723C315.794 156.723 318.059 154.765 320.205 153.692C322.566 152.511 325.222 151.509 327.443 150.102C329.345 148.898 331.664 147.788 332.946 145.865" stroke="#C9D546" stroke-width="3" stroke-linecap="round"/>
<path d="M313.084 156.723C311.032 156.517 308.232 154.09 306.744 152.75C305.407 151.547 304.172 150.476 303.286 148.925C302.647 147.807 301.87 146.733 301.168 145.659C300.632 144.84 299.73 144.314 299.314 143.482" stroke="#C9D546" stroke-width="3" stroke-linecap="round"/>
</svg>
