<svg width="44" height="44" viewBox="0 0 44 44" fill="none" xmlns="http://www.w3.org/2000/svg">
<path d="M35.2911 15.5307C34.8517 15.3806 34.4091 15.2408 33.9634 15.1113C34.0373 14.8106 34.1054 14.5081 34.1679 14.2038C35.1734 9.31401 34.5159 5.37463 32.2721 4.07783C30.1237 2.83346 26.6002 4.13025 23.0459 7.23088C22.6964 7.53682 22.3541 7.85192 22.0189 8.17619C21.7955 7.96078 21.5663 7.74994 21.3314 7.54369C17.606 4.22822 13.872 2.83174 11.6308 4.13283C9.48234 5.37979 8.84383 9.08283 9.74875 13.7174C9.83927 14.1758 9.94096 14.6321 10.0538 15.0864C9.54024 15.232 9.03099 15.3925 8.52672 15.5677C4.16453 17.0931 1.375 19.4847 1.375 21.9649C1.375 24.5275 4.36906 27.0971 8.91773 28.6551C9.28669 28.7806 9.65909 28.8972 10.0349 29.0049C9.91289 29.4913 9.8049 29.9831 9.71094 30.4804C8.85156 35.0351 9.52187 38.6505 11.666 39.8897C13.8806 41.1693 17.5957 39.8545 21.2171 36.6834C21.5036 36.4324 21.79 36.1675 22.0765 35.8885C22.4386 36.2385 22.811 36.5783 23.1937 36.9077C26.6999 39.931 30.1623 41.1521 32.303 39.9095C34.5159 38.6256 35.2352 34.7412 34.3011 30.0155C34.2295 29.6546 34.147 29.2862 34.0536 28.9103C34.3148 28.833 34.5707 28.7531 34.821 28.6706C39.5476 27.1005 42.6267 24.5619 42.6267 21.9674C42.625 19.4753 39.7461 17.0681 35.2911 15.5307ZM24.2052 8.56291C27.2499 5.90658 30.0962 4.85815 31.3938 5.60752C32.7748 6.40588 33.312 9.6251 32.444 13.8472C32.3867 14.1222 32.3248 14.3963 32.2584 14.6696C30.4413 14.2563 28.5987 13.9646 26.7429 13.7965C25.6803 12.2659 24.5155 10.8088 23.2564 9.43518C23.5646 9.13611 23.8803 8.84536 24.2034 8.56291H24.2052ZM13.5549 24.0841C13.9279 24.806 14.3178 25.519 14.7245 26.2231C15.1387 26.9415 15.5704 27.6493 16.0196 28.3466C14.7426 28.2078 13.4737 28.0032 12.2177 27.7338C12.5821 26.5548 13.0307 25.3302 13.5549 24.0841ZM13.5549 19.9307C13.0393 18.7113 12.6027 17.5116 12.2444 16.3531C13.4217 16.0893 14.6764 15.8736 15.9844 15.7103C15.5461 16.3944 15.1244 17.0885 14.7194 17.7926C14.3143 18.4967 13.9253 19.2094 13.5523 19.9307H13.5549ZM14.4916 22.0078C15.0348 20.8752 15.6197 19.7643 16.2465 18.6752C16.8727 17.5866 17.5393 16.523 18.2463 15.4843C19.4734 15.3915 20.7316 15.3425 22.0026 15.3425C23.2736 15.3425 24.5395 15.3915 25.7658 15.4852C26.4653 16.5216 27.1279 17.5815 27.7535 18.6649C28.3791 19.7482 28.9718 20.854 29.5316 21.9821C28.9793 23.1187 28.388 24.2342 27.7578 25.3285C27.1328 26.417 26.4739 27.4838 25.7812 28.5288C24.5566 28.6147 23.2891 28.662 22 28.662C20.7109 28.662 19.4674 28.6216 18.2652 28.5434C17.553 27.5012 16.881 26.433 16.2491 25.3388C15.6171 24.2445 15.0305 23.1342 14.4891 22.0078H14.4916ZM29.2832 26.211C29.6986 25.4903 30.0973 24.7601 30.4795 24.0205C31.0033 25.2082 31.4657 26.4221 31.8648 27.6574C30.5941 27.9435 29.3093 28.1629 28.0156 28.3148C28.4522 27.6221 28.8747 26.9209 29.2832 26.211ZM30.4623 19.9316C30.0818 19.2068 29.6863 18.4907 29.2755 17.7831C28.8744 17.0853 28.4565 16.3961 28.0216 15.7155C29.3373 15.8822 30.5998 16.1039 31.7831 16.3746C31.4027 17.5816 30.9618 18.7688 30.4623 19.9316ZM22.0198 10.6976C22.8779 11.6353 23.6882 12.6156 24.4475 13.6349C22.8233 13.5576 21.1979 13.5576 19.5714 13.6349C20.3732 12.5745 21.1939 11.5905 22.0198 10.6976ZM12.5177 5.65994C13.8978 4.85901 16.9495 6.00369 20.1661 8.86283C20.3715 9.04588 20.5786 9.23752 20.7848 9.43604C19.5193 10.8094 18.3463 12.2652 17.2734 13.7939C15.4217 13.9608 13.5828 14.2478 11.7683 14.6533C11.6634 14.2316 11.5689 13.8071 11.4847 13.3797C10.707 9.40682 11.2217 6.4119 12.5177 5.65994ZM10.5059 27.3033C10.1621 27.2053 9.82266 27.0991 9.4875 26.9845C7.47656 26.297 5.81539 25.3998 4.675 24.4227C3.65406 23.547 3.13672 22.673 3.13672 21.9649C3.13672 20.4601 5.37625 18.5403 9.11109 17.2383C9.58031 17.075 10.0535 16.9258 10.5308 16.7906C11.0855 18.5732 11.7572 20.3172 12.5417 22.0113C11.7479 23.7288 11.0678 25.4966 10.5059 27.3033ZM20.0561 35.3531C18.4551 36.7556 16.8515 37.7499 15.4378 38.2509C14.1677 38.7003 13.1562 38.7132 12.5452 38.36C11.2441 37.6081 10.7027 34.7042 11.4409 30.8096C11.5285 30.3512 11.6288 29.8929 11.7416 29.4346C13.5743 29.8293 15.4317 30.0989 17.3009 30.2415C18.3842 31.7782 19.567 33.2422 20.8416 34.6243C20.5855 34.8761 20.3234 35.1185 20.0561 35.3531ZM22.0687 33.3576C21.2334 32.4544 20.3998 31.4549 19.5869 30.3807C20.3769 30.4117 21.1813 30.4271 22 30.4271C22.8405 30.4271 23.6723 30.4091 24.4922 30.3721C23.7356 31.4078 22.9267 32.4043 22.0687 33.3576ZM32.7697 35.8146C32.5239 37.1414 32.0298 38.0266 31.4188 38.3806C30.1185 39.1352 27.3384 38.1546 24.3409 35.5688C23.9972 35.2731 23.6534 34.956 23.3037 34.6235C24.5535 33.236 25.7085 31.766 26.7609 30.2235C28.6405 30.0642 30.5069 29.7756 32.3469 29.3598C32.4311 29.7001 32.5056 30.0335 32.5703 30.3601C32.9837 32.4484 33.043 34.3373 32.7697 35.8146ZM34.265 26.9939C34.0398 27.0687 33.8078 27.1409 33.5723 27.2114C32.9954 25.4204 32.2974 23.6707 31.4832 21.9743C32.2669 20.3006 32.9375 18.5763 33.4907 16.8129C33.9127 16.9358 34.3226 17.0647 34.717 17.2013C38.5344 18.5179 40.8633 20.467 40.8633 21.9649C40.8633 23.5633 38.3479 25.6378 34.265 26.9939Z" fill="black"/>
<path d="M22.0036 25.6567C22.735 25.6591 23.4506 25.4444 24.0599 25.0398C24.6691 24.6352 25.1447 24.0589 25.4262 23.3839C25.7077 22.7089 25.7826 21.9655 25.6414 21.2479C25.5002 20.5303 25.1492 19.8707 24.6329 19.3527C24.1166 18.8347 23.4581 18.4816 22.741 18.338C22.0238 18.1944 21.2802 18.2669 20.6043 18.5462C19.9284 18.8256 19.3505 19.2992 18.9439 19.9072C18.5374 20.5151 18.3203 21.23 18.3203 21.9614C18.3193 22.446 18.4138 22.926 18.5984 23.374C18.783 23.822 19.0541 24.2292 19.3961 24.5724C19.7382 24.9156 20.1446 25.188 20.592 25.374C21.0394 25.5601 21.5191 25.6562 22.0036 25.6567Z" fill="black"/>
</svg>
