<svg width="43" height="43" viewBox="0 0 43 43" fill="none" xmlns="http://www.w3.org/2000/svg">
<g clip-path="url(#clip0_415_249)">
<path d="M42.2098 26.3788C42.185 26.3031 42.1506 26.2309 42.1077 26.1638C41.8586 25.6944 41.253 25.5529 40.3035 25.7499C37.34 26.3591 36.1934 25.9829 35.7777 25.7141C38.1821 22.0448 40.1583 17.6122 41.2262 13.477C41.7135 11.5958 42.6559 7.16498 41.4447 5.00244C41.368 4.85375 41.278 4.71224 41.176 4.57961C38.863 1.63052 35.4731 0.0448972 31.3702 0.0018972C28.6917 -0.0267695 26.4073 0.621814 25.7874 0.860105C25.4806 0.802621 25.1723 0.75363 24.8629 0.713189C24.0869 0.573162 23.3007 0.49706 22.5122 0.485647C20.3945 0.451606 18.5652 0.958647 17.0476 1.99065C15.514 1.41552 8.47091 -0.956644 4.11179 2.13219C1.67333 3.85756 0.551744 6.93923 0.768536 11.2948C0.841994 12.7604 1.67691 17.2682 2.99558 21.5861C3.81974 24.2844 4.67616 26.4272 5.56304 28.0039C6.55383 29.7848 7.58045 30.858 8.63395 31.2109C9.43662 31.4761 10.6639 31.4671 11.9629 29.9048C13.0897 28.5571 14.2517 27.2391 15.4477 25.9524C16.227 26.3734 17.0709 26.601 17.9381 26.6279C17.938 26.6302 17.938 26.6326 17.9381 26.635C17.7873 26.8145 17.6398 26.9967 17.4955 27.1815C16.8882 27.9519 16.761 28.1131 14.808 28.5163C14.2526 28.6309 12.7763 28.9337 12.7548 29.9693C12.7507 30.1763 12.8074 30.38 12.9178 30.5552C13.3245 31.3131 14.5697 31.6481 14.7364 31.6893C17.1282 32.2859 19.2245 31.8541 20.7779 30.4728C20.7474 34.47 20.9158 38.3884 21.396 39.5888C21.792 40.5796 22.7612 43.0001 25.8214 43.0001C26.2693 43.0001 26.7638 42.9464 27.3067 42.8317C30.4995 42.1473 31.8862 40.7354 32.4219 37.6251C32.6907 36.0664 33.1422 32.4741 33.3876 30.2775C33.4181 30.1521 33.4521 30.0625 33.4897 30.0338C33.4897 30.0338 33.6152 29.9478 34.2548 30.0876C34.2808 30.0933 34.3071 30.0975 34.3336 30.1001L34.7887 30.1395L34.8156 30.1413C36.3331 30.2112 38.2395 29.8869 39.3503 29.3709C40.5041 28.8334 42.5878 27.5201 42.2098 26.3788ZM4.24437 21.2779C2.91137 16.9152 2.13379 12.5256 2.07287 11.2966C1.87758 7.40506 2.81999 4.69786 4.87145 3.24661C8.16275 0.919231 13.5431 2.27911 15.815 3.01369L15.797 3.03161C12.1725 6.69019 12.2585 12.9467 12.271 13.3301C12.271 13.477 12.2818 13.6866 12.2997 13.9751C12.3606 15.025 12.4789 16.9851 12.1671 19.2032C11.8805 21.2636 12.5147 23.281 13.9104 24.7376C14.0537 24.8881 14.206 25.0297 14.3619 25.1623C13.7402 25.827 12.3911 27.2997 10.9524 29.0287C9.9347 30.2506 9.23237 30.0159 9.00304 29.9389C8.3007 29.7059 7.54641 28.8871 6.78316 27.5703C5.92316 26.0671 5.05779 23.9296 4.24795 21.2779H4.24437ZM15.0069 30.3939C14.7349 30.3254 14.4742 30.218 14.2329 30.075C14.3924 30.0051 14.6575 29.9138 15.0983 29.8242C17.3988 29.3494 17.7535 29.0161 18.5293 28.0325C18.7383 27.7597 18.9576 27.4949 19.1869 27.2388C19.2471 27.1715 19.2923 27.0921 19.3195 27.0059C19.624 26.7354 19.8068 26.8088 20.1006 26.9306C20.3801 27.0471 20.6525 27.3965 20.7635 27.7817C20.8173 27.9644 20.8746 28.3102 20.6829 28.579C19.0632 30.8472 16.7018 30.8186 15.0069 30.3939ZM18.7587 23.2488L18.6655 23.4996C18.4272 24.1392 18.205 24.7341 18.0671 25.2984C16.872 25.2949 15.7075 24.7824 14.8242 23.8597C13.699 22.6862 13.1884 21.054 13.4213 19.3806C13.7492 17.0371 13.6291 14.9964 13.5646 13.8999L13.5413 13.5057C14.0717 13.0363 16.5262 11.7212 18.2767 12.1225C19.0758 12.3053 19.5631 12.8499 19.7638 13.7852C20.8119 18.6299 19.9035 20.6473 19.1725 22.2705C19.0242 22.5919 18.8868 22.9181 18.7605 23.2488H18.7587ZM31.9525 31.4403C31.922 31.7574 31.888 32.1139 31.8414 32.5081L31.5798 33.2929C31.5591 33.3553 31.5483 33.4206 31.5476 33.4864C31.5368 34.3374 31.4508 34.6491 31.3415 35.0451C31.1636 35.6623 31.0554 36.2976 31.019 36.9389C30.822 39.4723 29.446 40.9289 26.6886 41.5184C23.9742 42.1007 23.4922 40.6297 23.0694 39.3308C23.0253 39.1944 22.9787 39.0588 22.9297 38.9241C22.5445 37.8741 22.5892 36.3942 22.6484 34.3464C22.677 33.3412 22.6036 30.9404 22.0571 29.6056C22.0643 29.0806 22.075 28.5467 22.0912 28.0074C22.0927 27.9388 22.083 27.8705 22.0625 27.805C22.0451 27.679 22.0188 27.5545 21.9837 27.4323C21.7651 26.6655 21.2312 26.0241 20.5862 25.7571C20.3317 25.6514 19.8641 25.4579 19.3015 25.6012C19.4216 25.1067 19.6294 24.5495 19.8552 23.9439L19.9501 23.6895C20.0576 23.4029 20.1902 23.1072 20.3317 22.7937C21.095 21.0952 22.1413 18.7696 21.0054 13.5164C20.5808 11.5492 19.16 10.5889 17.0064 10.811C15.7164 10.9454 14.5339 11.4668 13.9445 11.7642C13.8262 11.824 13.7091 11.8861 13.5933 11.9505C13.7581 9.96894 14.3798 6.26377 16.7036 3.92027C16.8761 3.74634 17.0573 3.58129 17.2465 3.42577C17.3407 3.40774 17.4295 3.36853 17.5063 3.31111C18.8536 2.28986 20.5432 1.78819 22.5265 1.81865C23.2611 1.83119 23.9635 1.87956 24.63 1.96377C28.1058 2.59981 30.4421 4.55631 31.8611 6.23331C33.3195 7.9569 34.1097 9.69302 34.425 10.6301C32.0546 10.39 30.4421 10.8576 29.6233 12.0276C27.846 14.5681 30.598 19.5024 31.9202 21.8746C32.1621 22.3081 32.3717 22.6844 32.438 22.8421C32.868 23.8866 33.4252 24.5836 33.832 25.0924C33.9574 25.2483 34.0792 25.3988 34.1706 25.5314C33.4539 25.7392 32.1639 26.2176 32.2804 28.6076C32.2359 29.0949 32.1857 29.5817 32.1299 30.0679C32.0475 30.4405 32.0062 30.892 31.9525 31.4403ZM33.5471 28.536C33.4754 27.0453 34.0308 26.8894 34.6167 26.7264C34.6979 26.7039 34.7786 26.6794 34.8586 26.6529C34.9342 26.72 35.0144 26.7817 35.0987 26.8375C36.1199 27.5111 37.9349 27.5918 40.4862 27.0776C40.1243 27.3947 39.5563 27.7942 38.7787 28.1544C38.0442 28.4948 36.8151 28.751 35.6487 28.8065C34.3587 28.8674 33.703 28.6632 33.5471 28.536ZM34.5683 11.9254C34.5472 12.5269 34.4844 13.1262 34.3802 13.7189C34.2817 14.3603 34.1795 15.0232 34.1527 15.8277C34.1276 16.6089 34.2243 17.4223 34.3193 18.2106C34.511 19.7998 34.7063 21.4356 33.9484 23.0499C33.8223 22.827 33.7098 22.5966 33.6116 22.3601C33.4346 21.9829 33.2403 21.614 33.0293 21.2546C31.9256 19.2766 29.3438 14.6434 30.6643 12.755C31.3451 11.7821 33.0687 11.7409 34.5683 11.9254ZM34.9768 24.4904C34.9264 24.4262 34.8757 24.3623 34.8245 24.2987L34.7618 24.2199C36.0626 22.0699 35.8082 19.9431 35.5806 18.0583C35.4875 17.2843 35.4015 16.5533 35.423 15.8689C35.4462 15.1397 35.5412 14.5162 35.6344 13.9124C35.749 13.1689 35.8673 12.4002 35.8332 11.4936C35.8598 11.3822 35.8671 11.2671 35.8547 11.1532C35.7723 10.2825 34.7797 7.68098 32.7552 5.32494C31.4356 3.76992 29.7919 2.52242 27.9392 1.66994C29.1326 1.42587 30.3493 1.31411 31.5673 1.33669C35.2438 1.41911 38.1517 2.79511 40.2103 5.42706C40.2542 5.48407 40.2943 5.54392 40.3303 5.60623C41.6257 8.03573 39.834 16.8489 34.9768 24.4904ZM19.1815 13.5326C19.1367 13.8551 18.6261 14.2904 18.0689 14.2904C18.0203 14.2902 17.9718 14.2866 17.9237 14.2797C17.5599 14.2159 17.235 14.0136 17.0172 13.7153C16.9347 13.6078 16.8022 13.3964 16.8272 13.2047C16.8355 13.1512 16.8545 13.1 16.8832 13.0541C16.9118 13.0082 16.9495 12.9686 16.9939 12.9377C17.2053 12.7783 17.6245 12.7191 18.0868 12.7836C18.653 12.8625 19.2388 13.1294 19.1815 13.5326ZM33.3894 12.7962C33.4091 12.9395 33.3016 13.1545 33.1153 13.3516C32.9223 13.5617 32.6653 13.7022 32.3843 13.7511C32.3398 13.7572 32.2949 13.7602 32.2499 13.7601C31.725 13.7601 31.2806 13.3409 31.2466 13.0954C31.2036 12.7783 31.7196 12.54 32.2499 12.4647C32.7838 12.3895 33.3464 12.4809 33.3894 12.7962Z" fill="black"/>
</g>
<defs>
<clipPath id="clip0_415_249">
<rect width="43" height="43" fill="white"/>
</clipPath>
</defs>
</svg>
